<svg xmlns="http://www.w3.org/2000/svg" viewBox="0 0 355.08 246.78"><defs><style>.cls-1{fill:#2d382f;}.cls-2{fill:#d7b69f;}</style></defs><title>box-open</title><g id="Calque_2" data-name="Calque 2"><g id="Calque_1-2" data-name="Calque 1"><path class="cls-1" d="M355.08,101.54,238.62,21.66l-80,16.12L158.43,0,0,64.83l1.1,42.52L60.93,107v51.74l119.23,88,174.92-74.64s-.08-39-.08-46.23C355,118.91,355.08,101.54,355.08,101.54ZM241,38l95.42,65.29c-7.39,3.17-34.13,14.59-34.13,14.59L241,73S241,45,241,38ZM229.3,72.75,112.14,122S86,104.11,80,100L228.83,41.54C228.91,42.22,229.3,72.75,229.3,72.75Zm-216.23-1L148.93,15.92l-.34,24.82L13.94,96ZM31.78,98.85,158.67,46.42l51.76-10.79c-2.27.94-147.59,60.71-147.88,60.84C62.59,96.16,31.78,98.85,31.78,98.85ZM175,228.1c-9.83-7.24-102.06-75-102.06-75V109.93L175.07,179.7S175,219.88,175,228.1Zm-50.71-97.93c9.1-3.9,111.3-46.22,111.3-46.22s52,38.41,53.42,39.68c-11.58,5-107.8,45.67-107.8,45.67S126.37,131.73,124.29,130.17Zm218.76,33.64L186.92,231V180.59s155.28-66.71,156.13-66.86Z"/><path class="cls-2" d="M175.07,179.7s-.07,40.18-.07,48.4c-9.83-7.24-102.06-75-102.06-75V109.93Z"/><path class="cls-2" d="M343.05,113.73v50.08L186.92,231V180.59S342.2,113.88,343.05,113.73Z"/><path class="cls-2" d="M289,123.63c-11.58,5-107.8,45.67-107.8,45.67s-54.84-37.57-56.92-39.13c9.1-3.9,111.3-46.22,111.3-46.22S287.63,122.36,289,123.63Z"/><path class="cls-2" d="M336.42,103.32c-7.39,3.17-34.13,14.59-34.13,14.59L241,73S241,45,241,38Z"/><path class="cls-2" d="M229.3,72.75,112.14,122S86,104.11,80,100L228.83,41.54C228.91,42.22,229.3,72.75,229.3,72.75Z"/><path class="cls-2" d="M210.43,35.63c-2.27.94-147.59,60.71-147.88,60.84,0-.31-30.77,2.38-30.77,2.38L158.67,46.42Z"/><polygon class="cls-2" points="148.93 15.92 148.59 40.74 13.94 95.95 13.07 71.7 148.93 15.92"/></g></g></svg>