<svg xmlns="http://www.w3.org/2000/svg" viewBox="0 0 294.14 222.44"><defs><style>.cls-1{fill:#2d382f;}.cls-2{fill:#d7b69f;}</style></defs><title>box-close</title><g id="Calque_2" data-name="Calque 2"><g id="Calque_2-2" data-name="Calque 2"><path class="cls-1" d="M294.14,77.19,180.5,0,0,72.58v61.84l119.23,88,174.91-74.65s-.07-39-.07-46.23C294.07,94.56,294.14,77.19,294.14,77.19ZM114.07,203.76c-9.83-7.25-102.06-75-102.06-75V85.59l102.12,69.76S114.07,195.53,114.07,203.76Zm-95-128.11L179,12.84c32.08,22,64.61,44.32,96.48,66.13-4.68,2-155.21,66-155.21,66S24.09,79.07,19.08,75.65Zm263,63.81L126,206.61v-7.86l156.13-65.66Zm0-16.14L126,189V156.25S281.27,89.53,282.12,89.38Z"/><path class="cls-2" d="M282.12,133.09v6.37L126,206.61v-7.86Z"/><path class="cls-2" d="M282.12,89.38v33.94L126,189V156.25S281.27,89.53,282.12,89.38Z"/><path class="cls-2" d="M114.13,155.35s-.06,40.18-.06,48.41c-9.83-7.25-102.06-75-102.06-75V85.59Z"/><path class="cls-2" d="M275.48,79c-4.68,2-155.21,66-155.21,66S24.09,79.07,19.08,75.65L179,12.84C211.08,34.79,243.61,57.16,275.48,79Z"/><path class="cls-1" d="M85.37,92.35l10.36-4,3.92,2.25A3.12,3.12,0,0,1,98.6,88c.15-.82,1.19-1.61,3.11-2.35q6.66-2.58,13.78,1.51l12.84,7.38,2.4-.93.77.44-12.16,4.72-.77-.45,1.76-.68-13.86-8a18,18,0,0,0-3.65-1.76,3.13,3.13,0,0,0-2,0c-.92.36-1.13,1-.64,2a8.17,8.17,0,0,0,3.3,2.91l11.77,6.77,1.85-.72.77.44L105.67,104l-.77-.44,2.37-.92L88.5,91.87l-2.36.92Z"/><path class="cls-1" d="M115.13,78a8.63,8.63,0,0,1-4.39.59,10.49,10.49,0,0,1-3.83-1.26c-1.13-.66-1.72-1.33-1.76-2s.66-1.32,2.09-1.88a9.76,9.76,0,0,1,4.27-.69,9.06,9.06,0,0,1,4,1.21c1.23.71,1.86,1.42,1.89,2.12S116.65,77.38,115.13,78Zm-3.54,4.21,10.53-4.09,19.53,11.23,2.41-.93.76.44-12.76,5-.77-.44,2.36-.92L114.89,81.63l-2.54,1Z"/><path class="cls-1" d="M147.1,88.36,139.46,84l.52-.2a28.69,28.69,0,0,0,8.21,1.82,15.38,15.38,0,0,0,6.22-1q4.38-1.71,1.61-3.3a5.13,5.13,0,0,0-2.86-.61,31.48,31.48,0,0,0-5.75.83,40,40,0,0,1-6.95.73,14,14,0,0,1-7.22-1.88q-3.33-1.92-3.25-3.85t3.52-3.28a20.23,20.23,0,0,1,5.32-1.12,7.2,7.2,0,0,0,1.59-.29c.28-.11.43-.26.43-.45a2.08,2.08,0,0,0-.38-.92l.47-.19,6.53,3.76-.52.2c-5.15-1.56-9.27-1.75-12.33-.56-1.35.53-2.12,1-2.31,1.57s.08,1,.79,1.41a3.6,3.6,0,0,0,1.3.45c.44.07.78.11,1,.13a5.88,5.88,0,0,0,.93,0l.94-.08c.24,0,.6-.07,1.07-.15s.81-.13,1-.18c2.43-.48,4.25-.79,5.47-.91s2.46-.2,3.75-.21a15.15,15.15,0,0,1,7.59,2.09q3.6,2.07,3.31,4c-.2,1.27-1.54,2.39-4,3.35A21.74,21.74,0,0,1,149,86.41a3.67,3.67,0,0,0-1.16.12c-.63.25-.72.79-.27,1.63Z"/><path class="cls-1" d="M164.63,71.5l1.24-.49-3.28-1.89a39.88,39.88,0,0,0-5.89-3,4.61,4.61,0,0,0-3.13-.12,1.71,1.71,0,0,0-1,.78c-.14.31,0,.61.49.88a8.83,8.83,0,0,0,1.68.72l1.08-.42a11.83,11.83,0,0,1,2.5,1.11c.83.48,1.2,1,1.1,1.66s-.71,1.16-1.79,1.58a8,8,0,0,1-7.24-.6q-5.25-3,3.74-6.5a21.2,21.2,0,0,1,8.79-1.75,19.52,19.52,0,0,1,8.29,2.88l8.66,5c1.48.85,2.63,1.11,3.46.79s.09-1.44-2.67-3.19l.69-.23c2.39,1.48,3.63,2.66,3.74,3.52s-.78,1.66-2.68,2.39q-5.14,2-9.08.49c.71.76.94,1.44.71,2s-1.07,1.15-2.5,1.71q-6.36,2.46-11.52-.5-3-1.74-1.73-3.33C159.17,74,161.27,72.8,164.63,71.5Zm6.62,5.23a2.33,2.33,0,0,0,1.54,0c.44-.18.5-.54.16-1.11a6.9,6.9,0,0,0-2.43-2l-4-2.28-.31.12c-1.77.69-1.37,1.78,1.22,3.27l.68.39A19.7,19.7,0,0,0,171.25,76.73Z"/><path class="cls-1" d="M188.22,62.34l1.25-.48L186.18,60A38.41,38.41,0,0,0,180.29,57a4.52,4.52,0,0,0-3.12-.12,1.67,1.67,0,0,0-1,.77c-.15.32,0,.61.48.88a8.67,8.67,0,0,0,1.69.72l1.07-.41a12.07,12.07,0,0,1,2.5,1.1c.84.48,1.21,1,1.1,1.67s-.7,1.15-1.79,1.58a8.08,8.08,0,0,1-7.24-.6q-5.24-3,3.74-6.51a21.18,21.18,0,0,1,8.8-1.74,19.43,19.43,0,0,1,8.29,2.88l8.65,5c1.48.85,2.64,1.12,3.47.8s.08-1.45-2.68-3.2l.69-.22q3.59,2.22,3.74,3.51c.11.87-.78,1.66-2.67,2.4q-5.16,2-9.09.48c.71.77.95,1.44.71,2s-1.06,1.15-2.5,1.71c-4.24,1.64-8.07,1.48-11.52-.5q-3-1.74-1.73-3.34T188.22,62.34Zm6.62,5.24a2.26,2.26,0,0,0,1.54,0c.45-.17.5-.54.16-1.11a7,7,0,0,0-2.43-2l-4-2.28-.3.12c-1.78.69-1.37,1.78,1.21,3.26l.69.4A21.21,21.21,0,0,0,194.84,67.58Z"/></g></g></svg>