<svg xmlns="http://www.w3.org/2000/svg" viewBox="0 0 192.83 58.25" fill="#2d382f"><defs></defs><title>nisaa-logo</title><g id="Calque_2" data-name="Calque 2"><g id="Calque_1-2" data-name="Calque 1"><path class="cls-1" d="M0,20.05H18.94v7.23a13.11,13.11,0,0,1,3.86-5.82q2.6-2.21,7.86-2.2,12.18,0,12.18,13.13V56.05h4.4v1.41H25V56.05h3.22V30.5q0-4.71-.63-6.09A2.29,2.29,0,0,0,25.31,23q-2.52,0-4.44,3.3a15.74,15.74,0,0,0-1.93,8v21.7h3.39v1.41H0V56.05H4.32V21.46H0Z"/><path class="cls-1" d="M48,20.05H67.21v36h4.4v1.41H48.27V56.05h4.32V21.46H48Zm11.87-5.43c-2.78,0-4.75-.71-5.93-2.12a8,8,0,0,1-1.77-5.27A7.3,7.3,0,0,1,54,2Q56,0,59.9,0a8.62,8.62,0,0,1,6,1.85,6.7,6.7,0,0,1,2,5.26,7.57,7.57,0,0,1-2,5.47Q64,14.62,59.82,14.62Z"/><path class="cls-1" d="M75,58.25V44.18h1q2,6.84,5.5,9.59a13.46,13.46,0,0,0,8.64,2.75q8,0,8-5.11a3.55,3.55,0,0,0-2-3.3,26.43,26.43,0,0,0-7.86-2.67,30.91,30.91,0,0,1-9-3.78Q75,38.84,75,32.7a13,13,0,0,1,3.78-9.79q3.77-3.64,10.06-3.65a19.54,19.54,0,0,1,7.94,1.81,6.46,6.46,0,0,0,2.28.63,1.83,1.83,0,0,0,1.33-.55,9.19,9.19,0,0,0,1.34-2h.86v12h-.94q-4-10.21-12.42-10.22a9.42,9.42,0,0,0-5.5,1.3,3.87,3.87,0,0,0-1.81,3.26,2.82,2.82,0,0,0,.55,1.85c.37.44.65.77.86,1a4.25,4.25,0,0,0,1,.67c.47.23.86.42,1.18.55s.79.3,1.45.51a11,11,0,0,0,1.45.39,60.31,60.31,0,0,1,7.71,2.32,26.44,26.44,0,0,1,4.48,2.4q4.32,3,4.32,9.63T101,54.83q-3.93,3.42-10.77,3.42A20.83,20.83,0,0,1,80.81,56a3,3,0,0,0-1.49-.63c-1.16,0-2.28,1-3.38,2.91Z"/><path class="cls-1" d="M126.17,39h2.27V32.94q0-7.47-.82-10a3.18,3.18,0,0,0-3.18-2.55,4.55,4.55,0,0,0-2.56.75,2.33,2.33,0,0,0-1.14,2,7.94,7.94,0,0,0,.47,2.63h2a11.17,11.17,0,0,1,.63,4,5.12,5.12,0,0,1-2,4,7.31,7.31,0,0,1-5,1.69q-6.76,0-6.76-6.52,0-9.67,16.43-9.67,9.34,0,12.93,3.18t3.58,11.68v16q0,4.09,2.28,4.09,2.67,0,3.14-8.1l1.18.08q-.31,6.93-2.59,9.52t-7.47,2.59q-9.44,0-10.85-5.82a8.41,8.41,0,0,1-3.07,4.4,10.4,10.4,0,0,1-6,1.42q-11.64,0-11.63-9.51,0-5.58,4.44-7.67T126.17,39Zm-2.72,14.94a1.63,1.63,0,0,0,1.65,1.17c.82,0,1.58-.66,2.28-2a11.94,11.94,0,0,0,1.06-5.54V40.25h-.54q-4.87,0-4.88,7.15v1.26A19.47,19.47,0,0,0,123.45,53.93Z"/><path class="cls-1" d="M169.32,39h2.28V32.94q0-7.47-.82-10a3.19,3.19,0,0,0-3.19-2.55,4.54,4.54,0,0,0-2.55.75,2.33,2.33,0,0,0-1.14,2,7.94,7.94,0,0,0,.47,2.63h2a11.17,11.17,0,0,1,.63,4,5.11,5.11,0,0,1-2,4,7.31,7.31,0,0,1-4.95,1.69q-6.77,0-6.76-6.52,0-9.67,16.42-9.67,9.36,0,12.94,3.18t3.57,11.68v16q0,4.09,2.28,4.09,2.67,0,3.15-8.1l1.18.08q-.32,6.93-2.6,9.52t-7.47,2.59q-9.42,0-10.84-5.82a8.52,8.52,0,0,1-3.07,4.4,10.4,10.4,0,0,1-6,1.42q-11.64,0-11.64-9.51,0-5.58,4.44-7.67T169.32,39Zm-2.71,14.94a1.63,1.63,0,0,0,1.65,1.17c.81,0,1.57-.66,2.28-2a11.94,11.94,0,0,0,1.06-5.54V40.25h-.55q-4.87,0-4.87,7.15v1.26A19.47,19.47,0,0,0,166.61,53.93Z"/></g></g></svg>